{
	"asset":{
		"generator":"Khronos glTF Blender I/O v4.3.47",
		"version":"2.0"
	},
	"scene":0,
	"scenes":[
		{
			"name":"Scene",
			"nodes":[
				0
			]
		}
	],
	"nodes":[
		{
			"mesh":0,
			"name":"elephant",
			"translation":[
				0,
				2.5353829860687256,
				0
			]
		}
	],
	"materials":[
		{
			"doubleSided":true,
			"name":"Material",
			"pbrMetallicRoughness":{
				"baseColorFactor":[
					0.1424006223678589,
					0.1424006223678589,
					0.1424006223678589,
					1
				],
				"metallicFactor":0,
				"roughnessFactor":0.5
			}
		},
		{
			"doubleSided":true,
			"name":"Material.002",
			"pbrMetallicRoughness":{
				"metallicFactor":0,
				"roughnessFactor":0.5
			}
		}
	],
	"meshes":[
		{
			"name":"Plane",
			"primitives":[
				{
					"attributes":{
						"POSITION":0,
						"NORMAL":1,
						"TEXCOORD_0":2
					},
					"indices":3,
					"material":0
				},
				{
					"attributes":{
						"POSITION":4,
						"NORMAL":5,
						"TEXCOORD_0":6
					},
					"indices":7,
					"material":1
				}
			]
		}
	],
	"accessors":[
		{
			"bufferView":0,
			"componentType":5126,
			"count":926,
			"max":[
				3.6088366508483887,
				3.334620714187622,
				2.0393972396850586
			],
			"min":[
				-4.020377159118652,
				-2.7600440979003906,
				-3.324858823816612e-07
			],
			"type":"VEC3"
		},
		{
			"bufferView":1,
			"componentType":5126,
			"count":926,
			"type":"VEC3"
		},
		{
			"bufferView":2,
			"componentType":5126,
			"count":926,
			"type":"VEC2"
		},
		{
			"bufferView":3,
			"componentType":5123,
			"count":1386,
			"type":"SCALAR"
		},
		{
			"bufferView":4,
			"componentType":5126,
			"count":78,
			"max":[
				-3.256057024002075,
				0.6876817941665649,
				0.8129910230636597
			],
			"min":[
				-4.650720119476318,
				-1.1155015230178833,
				0.17613476514816284
			],
			"type":"VEC3"
		},
		{
			"bufferView":5,
			"componentType":5126,
			"count":78,
			"type":"VEC3"
		},
		{
			"bufferView":6,
			"componentType":5126,
			"count":78,
			"type":"VEC2"
		},
		{
			"bufferView":7,
			"componentType":5123,
			"count":114,
			"type":"SCALAR"
		}
	],
	"bufferViews":[
		{
			"buffer":0,
			"byteLength":11112,
			"byteOffset":0,
			"target":34962
		},
		{
			"buffer":0,
			"byteLength":11112,
			"byteOffset":11112,
			"target":34962
		},
		{
			"buffer":0,
			"byteLength":7408,
			"byteOffset":22224,
			"target":34962
		},
		{
			"buffer":0,
			"byteLength":2772,
			"byteOffset":29632,
			"target":34963
		},
		{
			"buffer":0,
			"byteLength":936,
			"byteOffset":32404,
			"target":34962
		},
		{
			"buffer":0,
			"byteLength":936,
			"byteOffset":33340,
			"target":34962
		},
		{
			"buffer":0,
			"byteLength":624,
			"byteOffset":34276,
			"target":34962
		},
		{
			"buffer":0,
			"byteLength":228,
			"byteOffset":34900,
			"target":34963
		}
	],
	"buffers":[
		{
			"byteLength":35128,
			"uri":"Elephant.bin"
		}
	]
}
