{
    "asset" : {
        "generator" : "Khronos glTF Blender I/O v3.4.50",
        "version" : "2.0"
    },
    "scene" : 0,
    "scenes" : [
        {
            "name" : "Scene",
            "nodes" : [
                1
            ]
        }
    ],
    "nodes" : [
        {
            "mesh" : 0,
            "name" : "fire_axe",
            "translation" : [
                0,
                12.700277328491211,
                0
            ]
        },
        {
            "children" : [
                0
            ],
            "name" : "fire_axe_grp"
        }
    ],
    "materials" : [
        {
            "doubleSided" : true,
            "name" : "fire_axe_mat.001",
            "normalTexture" : {
                "index" : 0
            },
            "occlusionTexture" : {
                "index" : 1
            },
            "pbrMetallicRoughness" : {
                "baseColorTexture" : {
                    "index" : 2
                },
                "metallicRoughnessTexture" : {
                    "index" : 1
                }
            }
        }
    ],
    "meshes" : [
        {
            "name" : "Mesh",
            "primitives" : [
                {
                    "attributes" : {
                        "POSITION" : 0,
                        "TEXCOORD_0" : 1,
                        "NORMAL" : 2
                    },
                    "indices" : 3,
                    "material" : 0
                }
            ]
        }
    ],
    "textures" : [
        {
            "sampler" : 0,
            "source" : 0
        },
        {
            "sampler" : 0,
            "source" : 1
        },
        {
            "sampler" : 0,
            "source" : 2
        }
    ],
    "images" : [
        {
            "mimeType" : "image/png",
            "name" : "fire_axe_Normal",
            "uri" : "fire_axe_Normal.png"
        },
        {
            "mimeType" : "image/png",
            "name" : "fire_axe_AO-fire_axe_Roughness-fire_axe_Metallic",
            "uri" : "fire_axe_AO-fire_axe_Roughness-fire_axe_Metallic.png"
        },
        {
            "mimeType" : "image/png",
            "name" : "fire_axe_bcolor",
            "uri" : "fire_axe_bcolor.png"
        }
    ],
    "accessors" : [
        {
            "bufferView" : 0,
            "componentType" : 5126,
            "count" : 1116,
            "max" : [
                30.501224517822266,
                12.700277328491211,
                1.9248740673065186
            ],
            "min" : [
                -30.501224517822266,
                -12.700277328491211,
                -1.9248743057250977
            ],
            "type" : "VEC3"
        },
        {
            "bufferView" : 1,
            "componentType" : 5126,
            "count" : 1116,
            "type" : "VEC2"
        },
        {
            "bufferView" : 2,
            "componentType" : 5126,
            "count" : 1116,
            "type" : "VEC3"
        },
        {
            "bufferView" : 3,
            "componentType" : 5123,
            "count" : 2586,
            "type" : "SCALAR"
        }
    ],
    "bufferViews" : [
        {
            "buffer" : 0,
            "byteLength" : 13392,
            "byteOffset" : 0,
            "target" : 34962
        },
        {
            "buffer" : 0,
            "byteLength" : 8928,
            "byteOffset" : 13392,
            "target" : 34962
        },
        {
            "buffer" : 0,
            "byteLength" : 13392,
            "byteOffset" : 22320,
            "target" : 34962
        },
        {
            "buffer" : 0,
            "byteLength" : 5172,
            "byteOffset" : 35712,
            "target" : 34963
        }
    ],
    "samplers" : [
        {
            "magFilter" : 9729,
            "minFilter" : 9987
        }
    ],
    "buffers" : [
        {
            "byteLength" : 40884,
            "uri" : "fire_axe.bin"
        }
    ]
}
